# xmcd
#
# Track frame offsets:
#  150
#  14309
#  33044
#  42601
#  59201
#  91296
#  102990
#  118312
#  130707
#  144795
#  157988
#  177035
#
# Disc length: 2615 seconds
#
# Revision: 1
# Processed by: cddbd v1.5.1PL0 Copyright (c) Steve Scherf et al.
# Submitted via: Collectorz.com_Music_Collector 6.9
#
DISCID=9b0a350c
DTITLE=Alan Jackson - Under The Influence
DYEAR=1999
DGENRE=Country
TTITLE0=Pop A Top
TTITLE1=Farewell Party
TTITLE2=Kiss An Angel Good Mornin'
TTITLE3=Right In The Palm Of Your Hand
TTITLE4=The Blues Man (A Tribute To Hank Williams, Jr.)
TTITLE5=Revenooer Man
TTITLE6=My Own Kind Of Hat
TTITLE7=She Just Started Liking Cheatin' Songs
TTITLE8=The Way I Am
TTITLE9=It Must Be Love
TTITLE10=Once You've Had The Best
TTITLE11=Margaritaville (With Jimmy Buffett)
EXTD=
EXTT0=
EXTT1=
EXTT2=
EXTT3=
EXTT4=
EXTT5=
EXTT6=
EXTT7=
EXTT8=
EXTT9=
EXTT10=
EXTT11=
PLAYORDER=
